<?xml version="1.0" encoding="UTF-8" standalone="no"?>
<!DOCTYPE svg PUBLIC "-//W3C//DTD SVG 1.1//EN"
 "http://www.w3.org/Graphics/SVG/1.1/DTD/svg11.dtd">
<!-- Generated by graphviz version 12.2.1 (20241206.2353)
 -->
<!-- Title: G Pages: 1 -->
<svg width="360pt" height="1170pt"
 viewBox="0.00 0.00 359.50 1169.75" xmlns="http://www.w3.org/2000/svg" xmlns:xlink="http://www.w3.org/1999/xlink">
<g id="graph0" class="graph" transform="scale(1 1) rotate(0) translate(4 1165.75)">
<title>G</title>
<polygon fill="white" stroke="none" points="-4,4 -4,-1165.75 355.5,-1165.75 355.5,4 -4,4"/>
<g id="clust1" class="cluster">
<title>cluster_sw</title>
<polygon fill="#f0f9ff" stroke="#0288d1" stroke-dasharray="5,2" points="12.5,-921.25 12.5,-1153.75 343.5,-1153.75 343.5,-921.25 12.5,-921.25"/>
</g>
<g id="clust2" class="cluster">
<title>cluster_hw</title>
<polygon fill="#fffbeb" stroke="#d97706" stroke-dasharray="5,2" points="15.5,-594 15.5,-879.25 165.5,-879.25 165.5,-594 15.5,-594"/>
</g>
<g id="clust3" class="cluster">
<title>cluster_fb</title>
<polygon fill="#f7fee7" stroke="#65a30d" stroke-dasharray="5,2" points="9.5,-8 9.5,-552 171.5,-552 171.5,-8 9.5,-8"/>
</g>
<!-- State1 -->
<g id="node1" class="node">
<title>State1</title>
<g id="a_node1"><a xlink:href="#section-6" xlink:title="&lt;TABLE&gt;" target="_parent">
<path fill="#f3e8ff" stroke="none" d="M32.12,-1066.5C32.12,-1066.5 144.88,-1066.5 144.88,-1066.5 150.88,-1066.5 156.88,-1072.5 156.88,-1078.5 156.88,-1078.5 156.88,-1133.75 156.88,-1133.75 156.88,-1139.75 150.88,-1145.75 144.88,-1145.75 144.88,-1145.75 32.12,-1145.75 32.12,-1145.75 26.12,-1145.75 20.12,-1139.75 20.12,-1133.75 20.12,-1133.75 20.12,-1078.5 20.12,-1078.5 20.12,-1072.5 26.12,-1066.5 32.12,-1066.5"/>
<polygon fill="none" stroke="#7e22ce" points="20.12,-1103.5 20.12,-1145.75 156.88,-1145.75 156.88,-1103.5 20.12,-1103.5"/>
<text text-anchor="start" x="31.12" y="-1122.45" font-family="sans-serif" font-weight="bold" font-size="14.00">历史状态基准 (t&#45;1)</text>
<polygon fill="none" stroke="#7e22ce" points="20.12,-1066.5 20.12,-1103.5 156.88,-1103.5 156.88,-1066.5 20.12,-1066.5"/>
<text text-anchor="start" x="31.88" y="-1080.2" font-family="sans-serif" font-size="14.00">ω</text>
<text text-anchor="start" x="42.38" y="-1080.2" font-family="sans-serif" baseline-shift="sub" font-size="14.00">reg</text>
<text text-anchor="start" x="59.62" y="-1080.2" font-family="sans-serif" baseline-shift="super" font-size="14.00">(t&#45;1)</text>
<text text-anchor="start" x="80.62" y="-1080.2" font-family="sans-serif" font-size="14.00"> = 170,620</text>
</a>
</g>
</g>
<!-- S2 -->
<g id="node3" class="node">
<title>S2</title>
<g id="a_node3"><a xlink:href="#section-5" xlink:title="&lt;TABLE&gt;" target="_parent">
<path fill="#e0f2fe" stroke="none" d="M48.75,-929.25C48.75,-929.25 132.25,-929.25 132.25,-929.25 138.25,-929.25 144.25,-935.25 144.25,-941.25 144.25,-941.25 144.25,-996.5 144.25,-996.5 144.25,-1002.5 138.25,-1008.5 132.25,-1008.5 132.25,-1008.5 48.75,-1008.5 48.75,-1008.5 42.75,-1008.5 36.75,-1002.5 36.75,-996.5 36.75,-996.5 36.75,-941.25 36.75,-941.25 36.75,-935.25 42.75,-929.25 48.75,-929.25"/>
<polygon fill="none" stroke="#0288d1" points="36.75,-966.25 36.75,-1008.5 144.25,-1008.5 144.25,-966.25 36.75,-966.25"/>
<text text-anchor="start" x="47.75" y="-985.2" font-family="sans-serif" font-weight="bold" font-size="14.00">初始 QP 推演</text>
<polygon fill="none" stroke="#0288d1" points="36.75,-929.25 36.75,-966.25 144.25,-966.25 144.25,-929.25 36.75,-929.25"/>
<text text-anchor="start" x="56.38" y="-942.95" font-family="sans-serif" font-size="14.00">QP</text>
<text text-anchor="start" x="76.62" y="-942.95" font-family="sans-serif" baseline-shift="sub" font-size="14.00">hdr</text>
<text text-anchor="start" x="93.88" y="-942.95" font-family="sans-serif" font-size="14.00"> = </text>
<text text-anchor="start" x="109.62" y="-942.95" font-family="sans-serif" font-weight="bold" font-size="14.00" fill="#0288d1">25</text>
</a>
</g>
</g>
<!-- State1&#45;&gt;S2 -->
<g id="edge2" class="edge">
<title>State1&#45;&gt;S2</title>
<path fill="none" stroke="#475569" stroke-width="1.5" stroke-dasharray="5,2" d="M90.5,-1066.79C90.5,-1066.79 90.5,-1020.48 90.5,-1020.48"/>
<polygon fill="#475569" stroke="#475569" stroke-width="1.5" points="94,-1020.48 90.5,-1010.48 87,-1020.48 94,-1020.48"/>
</g>
<!-- S1 -->
<g id="node2" class="node">
<title>S1</title>
<g id="a_node2"><a xlink:href="#section-2" xlink:title="&lt;TABLE&gt;" target="_parent">
<path fill="#e0f2fe" stroke="none" d="M227.38,-1066.5C227.38,-1066.5 323.62,-1066.5 323.62,-1066.5 329.62,-1066.5 335.62,-1072.5 335.62,-1078.5 335.62,-1078.5 335.62,-1133.75 335.62,-1133.75 335.62,-1139.75 329.62,-1145.75 323.62,-1145.75 323.62,-1145.75 227.38,-1145.75 227.38,-1145.75 221.38,-1145.75 215.38,-1139.75 215.38,-1133.75 215.38,-1133.75 215.38,-1078.5 215.38,-1078.5 215.38,-1072.5 221.38,-1066.5 227.38,-1066.5"/>
<polygon fill="none" stroke="#0288d1" points="215.38,-1103.5 215.38,-1145.75 335.62,-1145.75 335.62,-1103.5 215.38,-1103.5"/>
<text text-anchor="start" x="247" y="-1122.45" font-family="sans-serif" font-weight="bold" font-size="14.00">目标分配</text>
<polygon fill="none" stroke="#0288d1" points="215.38,-1066.5 215.38,-1103.5 335.62,-1103.5 335.62,-1066.5 215.38,-1066.5"/>
<text text-anchor="start" x="226.38" y="-1080.2" font-family="sans-serif" font-size="14.00">T</text>
<text text-anchor="start" x="234.62" y="-1080.2" font-family="sans-serif" baseline-shift="sub" font-size="14.00">pic</text>
<text text-anchor="start" x="249.62" y="-1080.2" font-family="sans-serif" font-size="14.00"> = </text>
<text text-anchor="start" x="265.38" y="-1080.2" font-family="sans-serif" font-weight="bold" font-size="14.00" fill="#0288d1">38,000</text>
<text text-anchor="start" x="306.62" y="-1080.2" font-family="sans-serif" font-size="14.00"> bit</text>
</a>
</g>
</g>
<!-- S1&#45;&gt;S2 -->
<g id="edge1" class="edge">
<title>S1&#45;&gt;S2</title>
<path fill="none" stroke="#64748b" stroke-width="1.5" d="M275.5,-1066.83C275.5,-1026.31 275.5,-969 275.5,-969 275.5,-969 156.28,-969 156.28,-969"/>
<polygon fill="#64748b" stroke="#64748b" stroke-width="1.5" points="156.28,-965.5 146.28,-969 156.28,-972.5 156.28,-965.5"/>
</g>
<!-- S3 -->
<g id="node4" class="node">
<title>S3</title>
<g id="a_node4"><a xlink:href="#section-7" xlink:title="&lt;TABLE&gt;" target="_parent">
<path fill="#fef3c7" stroke="none" d="M35.62,-744.5C35.62,-744.5 145.38,-744.5 145.38,-744.5 151.38,-744.5 157.38,-750.5 157.38,-756.5 157.38,-756.5 157.38,-859.25 157.38,-859.25 157.38,-865.25 151.38,-871.25 145.38,-871.25 145.38,-871.25 35.62,-871.25 35.62,-871.25 29.62,-871.25 23.62,-865.25 23.62,-859.25 23.62,-859.25 23.62,-756.5 23.62,-756.5 23.62,-750.5 29.62,-744.5 35.62,-744.5"/>
<polygon fill="none" stroke="#d97706" points="23.62,-829 23.62,-871.25 157.38,-871.25 157.38,-829 23.62,-829"/>
<text text-anchor="start" x="40.25" y="-847.95" font-family="sans-serif" font-weight="bold" font-size="14.00">像素级 AQ 解算</text>
<polygon fill="none" stroke="#d97706" points="23.62,-786.75 23.62,-829 157.38,-829 157.38,-786.75 23.62,-786.75"/>
<text text-anchor="start" x="36.5" y="-805.7" font-family="sans-serif" font-size="14.00">平滑区: ΔQP = </text>
<text text-anchor="start" x="132.5" y="-805.7" font-family="sans-serif" font-weight="bold" font-size="14.00">&#45;6</text>
<polygon fill="none" stroke="#d97706" points="23.62,-744.5 23.62,-786.75 157.38,-786.75 157.38,-744.5 23.62,-744.5"/>
<text text-anchor="start" x="34.62" y="-763.45" font-family="sans-serif" font-size="14.00">爆炸区: ΔQP = </text>
<text text-anchor="start" x="130.62" y="-763.45" font-family="sans-serif" font-weight="bold" font-size="14.00">+8</text>
</a>
</g>
</g>
<!-- S2&#45;&gt;S3 -->
<g id="edge7" class="edge">
<title>S2&#45;&gt;S3</title>
<path fill="none" stroke="#64748b" stroke-width="1.5" d="M90.5,-929.49C90.5,-929.49 90.5,-883.27 90.5,-883.27"/>
<polygon fill="#64748b" stroke="#64748b" stroke-width="1.5" points="94,-883.27 90.5,-873.27 87,-883.27 94,-883.27"/>
</g>
<!-- S4 -->
<g id="node5" class="node">
<title>S4</title>
<g id="a_node5"><a xlink:href="#section-hw-rdo" xlink:title="&lt;TABLE&gt;" target="_parent">
<path fill="#fef3c7" stroke="none" d="M41.62,-602C41.62,-602 139.38,-602 139.38,-602 145.38,-602 151.38,-608 151.38,-614 151.38,-614 151.38,-674.5 151.38,-674.5 151.38,-680.5 145.38,-686.5 139.38,-686.5 139.38,-686.5 41.62,-686.5 41.62,-686.5 35.62,-686.5 29.62,-680.5 29.62,-674.5 29.62,-674.5 29.62,-614 29.62,-614 29.62,-608 35.62,-602 41.62,-602"/>
<polygon fill="none" stroke="#d97706" points="29.62,-644.25 29.62,-686.5 151.38,-686.5 151.38,-644.25 29.62,-644.25"/>
<text text-anchor="start" x="47.75" y="-663.2" font-family="sans-serif" font-weight="bold" font-size="14.00">硬件物理执行</text>
<polygon fill="none" stroke="#d97706" points="29.62,-602 29.62,-644.25 151.38,-644.25 151.38,-602 29.62,-602"/>
<text text-anchor="start" x="40.62" y="-620.95" font-family="sans-serif" font-size="14.00">QP</text>
<text text-anchor="start" x="60.88" y="-620.95" font-family="sans-serif" baseline-shift="sub" font-size="14.00">cu</text>
<text text-anchor="start" x="73.62" y="-620.95" font-family="sans-serif" font-size="14.00"> ∈ </text>
<text text-anchor="start" x="93.88" y="-620.95" font-family="sans-serif" font-weight="bold" font-size="14.00" fill="#d97706">[19, 33]</text>
</a>
</g>
</g>
<!-- S3&#45;&gt;S4 -->
<g id="edge3" class="edge">
<title>S3&#45;&gt;S4</title>
<path fill="none" stroke="#64748b" stroke-width="1.5" d="M90.5,-744.61C90.5,-744.61 90.5,-698.4 90.5,-698.4"/>
<polygon fill="#64748b" stroke="#64748b" stroke-width="1.5" points="94,-698.4 90.5,-688.4 87,-698.4 94,-698.4"/>
</g>
<!-- OutCABAC -->
<g id="node6" class="node">
<title>OutCABAC</title>
<g id="a_node6"><a xlink:href="#section-hw-rdo" xlink:title="&lt;TABLE&gt;" target="_parent">
<path fill="#ecfccb" stroke="none" d="M30,-427.75C30,-427.75 151,-427.75 151,-427.75 157,-427.75 163,-433.75 163,-439.75 163,-439.75 163,-532 163,-532 163,-538 157,-544 151,-544 151,-544 30,-544 30,-544 24,-544 18,-538 18,-532 18,-532 18,-439.75 18,-439.75 18,-433.75 24,-427.75 30,-427.75"/>
<polygon fill="none" stroke="#65a30d" points="18,-501.75 18,-544 163,-544 163,-501.75 18,-501.75"/>
<text text-anchor="start" x="35.75" y="-520.7" font-family="sans-serif" font-weight="bold" font-size="14.00">CABAC 物理统计</text>
<polygon fill="none" stroke="#65a30d" points="18,-464.75 18,-501.75 163,-501.75 163,-464.75 18,-464.75"/>
<text text-anchor="start" x="29" y="-478.45" font-family="sans-serif" font-size="14.00">B</text>
<text text-anchor="start" x="38" y="-478.45" font-family="sans-serif" baseline-shift="sub" font-size="14.00">actual</text>
<text text-anchor="start" x="69.5" y="-478.45" font-family="sans-serif" font-size="14.00"> = </text>
<text text-anchor="start" x="85.25" y="-478.45" font-family="sans-serif" font-weight="bold" font-size="14.00" fill="#65a30d">300,000</text>
<text text-anchor="start" x="134" y="-478.45" font-family="sans-serif" font-size="14.00"> bit</text>
<polygon fill="none" stroke="#65a30d" points="18,-427.75 18,-464.75 163,-464.75 163,-427.75 18,-427.75"/>
<text text-anchor="start" x="55.25" y="-441.45" font-family="sans-serif" font-size="14.00">QP</text>
<text text-anchor="start" x="75.5" y="-441.45" font-family="sans-serif" baseline-shift="sub" font-size="14.00">avg</text>
<text text-anchor="start" x="95" y="-441.45" font-family="sans-serif" font-size="14.00"> = </text>
<text text-anchor="start" x="110.75" y="-441.45" font-family="sans-serif" font-weight="bold" font-size="14.00" fill="#65a30d">20</text>
</a>
</g>
</g>
<!-- S4&#45;&gt;OutCABAC -->
<g id="edge8" class="edge">
<title>S4&#45;&gt;OutCABAC</title>
<path fill="none" stroke="#64748b" stroke-width="1.5" d="M90.5,-602.22C90.5,-602.22 90.5,-556.17 90.5,-556.17"/>
<polygon fill="#64748b" stroke="#64748b" stroke-width="1.5" points="94,-556.17 90.5,-546.17 87,-556.17 94,-556.17"/>
</g>
<!-- S5 -->
<g id="node7" class="node">
<title>S5</title>
<g id="a_node7"><a xlink:href="#section-9" xlink:title="&lt;TABLE&gt;" target="_parent">
<path fill="#e0f2fe" stroke="none" d="M45.75,-290.5C45.75,-290.5 135.25,-290.5 135.25,-290.5 141.25,-290.5 147.25,-296.5 147.25,-302.5 147.25,-302.5 147.25,-357.75 147.25,-357.75 147.25,-363.75 141.25,-369.75 135.25,-369.75 135.25,-369.75 45.75,-369.75 45.75,-369.75 39.75,-369.75 33.75,-363.75 33.75,-357.75 33.75,-357.75 33.75,-302.5 33.75,-302.5 33.75,-296.5 39.75,-290.5 45.75,-290.5"/>
<polygon fill="none" stroke="#0288d1" points="33.75,-327.5 33.75,-369.75 147.25,-369.75 147.25,-327.5 33.75,-327.5"/>
<text text-anchor="start" x="54.88" y="-346.45" font-family="sans-serif" font-weight="bold" font-size="14.00">状态机校准</text>
<polygon fill="none" stroke="#0288d1" points="33.75,-290.5 33.75,-327.5 147.25,-327.5 147.25,-290.5 33.75,-290.5"/>
<text text-anchor="start" x="44.75" y="-304.2" font-family="sans-serif" font-size="14.00">ω</text>
<text text-anchor="start" x="55.25" y="-304.2" font-family="sans-serif" baseline-shift="sub" font-size="14.00">cur</text>
<text text-anchor="start" x="71.75" y="-304.2" font-family="sans-serif" font-size="14.00"> = </text>
<text text-anchor="start" x="87.5" y="-304.2" font-family="sans-serif" font-weight="bold" font-size="14.00">756,000</text>
</a>
</g>
</g>
<!-- OutCABAC&#45;&gt;S5 -->
<g id="edge4" class="edge">
<title>OutCABAC&#45;&gt;S5</title>
<path fill="none" stroke="#64748b" stroke-width="1.5" d="M90.5,-427.88C90.5,-427.88 90.5,-382 90.5,-382"/>
<polygon fill="#64748b" stroke="#64748b" stroke-width="1.5" points="94,-382 90.5,-372 87,-382 94,-382"/>
</g>
<!-- EMA -->
<g id="node8" class="node">
<title>EMA</title>
<g id="a_node8"><a xlink:href="#param-alpha" xlink:title="&lt;TABLE&gt;" target="_parent">
<path fill="#e0f2fe" stroke="none" d="M31.5,-153.25C31.5,-153.25 149.5,-153.25 149.5,-153.25 155.5,-153.25 161.5,-159.25 161.5,-165.25 161.5,-165.25 161.5,-220.5 161.5,-220.5 161.5,-226.5 155.5,-232.5 149.5,-232.5 149.5,-232.5 31.5,-232.5 31.5,-232.5 25.5,-232.5 19.5,-226.5 19.5,-220.5 19.5,-220.5 19.5,-165.25 19.5,-165.25 19.5,-159.25 25.5,-153.25 31.5,-153.25"/>
<polygon fill="none" stroke="#0288d1" points="19.5,-190.25 19.5,-232.5 161.5,-232.5 161.5,-190.25 19.5,-190.25"/>
<text text-anchor="start" x="30.5" y="-209.2" font-family="sans-serif" font-weight="bold" font-size="14.00">EMA 滤波平滑更新</text>
<polygon fill="none" stroke="#0288d1" points="19.5,-153.25 19.5,-190.25 161.5,-190.25 161.5,-153.25 19.5,-153.25"/>
<text text-anchor="start" x="61.62" y="-166.95" font-family="sans-serif" text-decoration="underline" font-size="14.00" fill="#7c3aed">α = 0.125</text>
</a>
</g>
</g>
<!-- S5&#45;&gt;EMA -->
<g id="edge5" class="edge">
<title>S5&#45;&gt;EMA</title>
<path fill="none" stroke="#64748b" stroke-width="1.5" d="M90.5,-290.79C90.5,-290.79 90.5,-244.48 90.5,-244.48"/>
<polygon fill="#64748b" stroke="#64748b" stroke-width="1.5" points="94,-244.48 90.5,-234.48 87,-244.48 94,-244.48"/>
</g>
<!-- State2 -->
<g id="node9" class="node">
<title>State2</title>
<g id="a_node9"><a xlink:href="#section-10" xlink:title="&lt;TABLE&gt;" target="_parent">
<path fill="#f3e8ff" stroke="none" d="M33,-16C33,-16 148,-16 148,-16 154,-16 160,-22 160,-28 160,-28 160,-83.25 160,-83.25 160,-89.25 154,-95.25 148,-95.25 148,-95.25 33,-95.25 33,-95.25 27,-95.25 21,-89.25 21,-83.25 21,-83.25 21,-28 21,-28 21,-22 27,-16 33,-16"/>
<polygon fill="none" stroke="#7e22ce" points="21,-53 21,-95.25 160,-95.25 160,-53 21,-53"/>
<text text-anchor="start" x="32" y="-71.95" font-family="sans-serif" font-weight="bold" font-size="14.00">新历史状态基准 (t)</text>
<polygon fill="none" stroke="#7e22ce" points="21,-16 21,-53 160,-53 160,-16 21,-16"/>
<text text-anchor="start" x="39.12" y="-29.7" font-family="sans-serif" font-size="14.00">ω</text>
<text text-anchor="start" x="49.62" y="-29.7" font-family="sans-serif" baseline-shift="sub" font-size="14.00">reg</text>
<text text-anchor="start" x="66.88" y="-29.7" font-family="sans-serif" baseline-shift="super" font-size="14.00">(t)</text>
<text text-anchor="start" x="77.38" y="-29.7" font-family="sans-serif" font-size="14.00"> = </text>
<text text-anchor="start" x="93.12" y="-29.7" font-family="sans-serif" font-weight="bold" font-size="14.00" fill="#7e22ce">243,793</text>
</a>
</g>
</g>
<!-- EMA&#45;&gt;State2 -->
<g id="edge6" class="edge">
<title>EMA&#45;&gt;State2</title>
<path fill="none" stroke="#64748b" stroke-width="1.5" d="M90.5,-153.54C90.5,-153.54 90.5,-107.23 90.5,-107.23"/>
<polygon fill="#64748b" stroke="#64748b" stroke-width="1.5" points="94,-107.23 90.5,-97.23 87,-107.23 94,-107.23"/>
</g>
<!-- State2&#45;&gt;State1 -->
<g id="edge9" class="edge">
<title>State2&#45;&gt;State1</title>
<path fill="none" stroke="#7e22ce" stroke-width="1.5" stroke-dasharray="5,2" d="M21.45,-56C9.06,-56 0,-56 0,-56 0,-56 0,-1106 0,-1106 0,-1106 8.26,-1106 8.26,-1106"/>
<polygon fill="#7e22ce" stroke="#7e22ce" stroke-width="1.5" points="8.26,-1109.5 18.26,-1106 8.26,-1102.5 8.26,-1109.5"/>
</g>
</g>
</svg>
